# xmcd
#
# Track frame offsets:
#	150
#	17035
#	35702
#	53335
#	70800
#	90635
#	117695
#	134712
#	152412
#	169330
#	187977
#	205682
#	223117
#	242875
#	269930
#	286915
#
# Disc length: 4060 seconds
#
# Revision: 1
# Processed by: cddbd v1.5.1PL2 Copyright (c) Steve Scherf et al.
# Submitted via: audiograbber 1.83.01
#
DISCID=f40fda10
DTITLE=Various Artist - Sc2058
DYEAR=1900
DGENRE=Country
TTITLE0=McBride, Martina - Phones Are Ringin' All Over Town
TTITLE1=Morgan, Lorrie - Back In Your Arms Again
TTITLE2=Yearwood, Trisha - Believe Me Baby I Lied
TTITLE3=McCready, Mindy - Ten Thousand Angels
TTITLE4=McEntire, Reba - Starting Over Again
TTITLE5=Judd, Wynonna - Heaven Help My Heart
TTITLE6=Loveless, Patty - Thousand Times A Day, A
TTITLE7=Messina, Jo Dee - Heads Carolina, Tails California
TTITLE8=McBride, Martina - Phones Are Ringin' All Over Town (Vocals)
TTITLE9=Morgan, Lorrie - Back In Your Arms Again (Vocals)
TTITLE10=Yearwood, Trisha - Believe Me Baby I Lied (Vocals)
TTITLE11=McCready, Mindy - Ten Thousand Angels (Vocals)
TTITLE12=McEntire, Reba - Starting Over Again (Vocals)
TTITLE13=Judd, Wynonna - Heaven Help My Heart (Vocals)
TTITLE14=Loveless, Patty - Thousand Times A Day, A (Vocals)
TTITLE15=Messina, Jo Dee - Heads Carolina, Tails California (Vocals)
EXTD=
EXTT0=
EXTT1=
EXTT2=
EXTT3=
EXTT4=
EXTT5=
EXTT6=
EXTT7=
EXTT8=
EXTT9=
EXTT10=
EXTT11=
EXTT12=
EXTT13=
EXTT14=
EXTT15=
PLAYORDER=
